<?xml version="1.0" standalone="no"?>
<!DOCTYPE svg PUBLIC "-//W3C//DTD SVG 20010904//EN"
 "http://www.w3.org/TR/2001/REC-SVG-20010904/DTD/svg10.dtd">
<svg version="1.0" xmlns="http://www.w3.org/2000/svg"
 width="88.000000pt" height="86.000000pt" viewBox="0 0 88.000000 86.000000"
 preserveAspectRatio="xMidYMid meet">

<g transform="translate(0.000000,86.000000) scale(0.100000,-0.100000)"
fill="#000000" stroke="none">
<path d="M232 814 c-15 -10 -22 -25 -22 -48 0 -40 26 -66 66 -66 41 0 102 -63
102 -104 -1 -32 31 -66 62 -66 30 0 62 34 64 68 2 45 59 102 102 102 40 0 78
41 68 74 -7 27 -41 56 -64 56 -33 0 -63 -34 -62 -71 1 -25 -7 -42 -31 -66 -26
-28 -38 -33 -77 -33 -39 0 -51 5 -77 33 -24 24 -32 41 -31 66 1 24 -5 40 -22
53 -27 22 -49 23 -78 2z"/>
<path d="M57 642 c-26 -29 -22 -78 8 -98 15 -9 34 -14 47 -10 33 8 98 -57 98
-99 0 -43 -63 -105 -106 -105 -66 0 -89 -88 -31 -120 24 -13 30 -13 55 0 21
12 28 24 30 55 5 56 52 105 102 105 44 0 73 27 73 67 0 36 -38 66 -74 59 -36
-7 -99 56 -99 100 0 56 -67 86 -103 46z"/>
<path d="M227 642 c-10 -10 -17 -33 -17 -50 0 -38 37 -67 73 -58 18 4 32 -3
60 -32 30 -31 36 -43 34 -73 -4 -46 -58 -98 -103 -99 -39 0 -64 -27 -64 -68 0
-32 29 -62 61 -62 30 0 62 34 61 66 0 45 61 104 108 104 47 0 108 -59 108
-104 -1 -32 31 -66 62 -66 23 0 57 29 64 56 10 33 -28 74 -68 74 -43 0 -100
57 -103 103 -2 43 59 109 93 101 67 -17 108 80 50 118 -40 27 -100 -10 -98
-61 1 -43 -56 -95 -108 -96 -33 -1 -46 5 -76 36 -19 20 -35 43 -34 50 7 48
-16 79 -59 79 -15 0 -35 -8 -44 -18z"/>
<path d="M737 642 c-10 -10 -17 -32 -17 -47 0 -43 -64 -106 -99 -99 -36 7 -73
-23 -73 -59 -1 -38 28 -67 67 -67 43 0 105 -63 105 -108 0 -68 88 -81 119 -18
19 41 -10 80 -65 84 -27 2 -49 13 -71 34 -28 27 -32 37 -29 72 4 48 61 108 94
99 65 -16 104 82 48 119 -20 14 -63 8 -79 -10z"/>
<path d="M397 312 c-10 -10 -17 -32 -17 -48 0 -43 -58 -98 -105 -100 -19 0
-41 -7 -50 -14 -20 -16 -19 -74 1 -94 30 -31 102 -12 105 27 3 47 9 62 36 89
46 46 97 45 146 -1 27 -26 37 -43 37 -66 0 -37 26 -65 61 -65 30 0 43 9 58 37
23 44 -22 100 -72 88 -19 -5 -31 2 -61 35 -24 27 -35 47 -31 59 3 10 -4 29
-16 44 -24 32 -68 36 -92 9z"/>
</g>
</svg>
